<svg xmlns="http://www.w3.org/2000/svg" width="341" height="66" viewBox="0 0 341 66">
  <defs>
    <style>
      .cls-1 {
        fill: #341310;
        fill-rule: evenodd;
      }
    </style>
  </defs>
  <path class="cls-1" d="M94.885,46.936a6.22,6.22,0,0,1-2.148-.373,9.049,9.049,0,0,1-1.936-.981,15.891,15.891,0,0,1-1.761-1.367q-0.85-.757-1.624-1.553a8.512,8.512,0,0,1-.887,1.478,6.281,6.281,0,0,1-1.186,1.205,5.483,5.483,0,0,1-1.5.819,5.251,5.251,0,0,1-1.8.3,5.558,5.558,0,0,1-2.26-.435,5,5,0,0,1-1.661-1.155,5.055,5.055,0,0,1-1.037-1.665,5.5,5.5,0,0,1-.362-1.988,5.348,5.348,0,0,1,1.761-4.037,6.065,6.065,0,0,1,4.059-1.553,5.687,5.687,0,0,1,.837.062,5.573,5.573,0,0,1,.812.187,21.84,21.84,0,0,0-1.149-3.193q-0.7-1.552-1.362-3.168a29.158,29.158,0,0,1-1.148-3.4,14.89,14.89,0,0,1-.487-3.926,13.486,13.486,0,0,1,.4-3.255,14.933,14.933,0,0,1,1.136-3.094,13.666,13.666,0,0,1,1.811-2.746,12.422,12.422,0,0,1,2.423-2.2,11.314,11.314,0,0,1,2.96-1.453,11.076,11.076,0,0,1,3.434-.522,8.878,8.878,0,0,1,3.123.522,7.5,7.5,0,0,1,2.41,1.429,6.228,6.228,0,0,1,1.561,2.161,6.784,6.784,0,0,1,.549,2.746,9.07,9.07,0,0,1-.449,2.857,10.971,10.971,0,0,1-1.224,2.56,11.844,11.844,0,0,1-1.8,2.161,12.808,12.808,0,0,1-2.173,1.665,10.6,10.6,0,0,1-2.348,1.068,7.721,7.721,0,0,1-2.3.373,2.761,2.761,0,0,1-.986-0.174,2.384,2.384,0,0,1-.825-0.522,2.446,2.446,0,0,1-.575-0.894,3.573,3.573,0,0,1-.212-1.292q0-.671.4-0.671a0.621,0.621,0,0,1,.337.174,0.983,0.983,0,0,0,.637.174,6.081,6.081,0,0,0,2.6-.621,9.748,9.748,0,0,0,2.41-1.6,8.818,8.818,0,0,0,1.774-2.186,4.732,4.732,0,0,0,.687-2.348,4.314,4.314,0,0,0-.225-1.4,3.319,3.319,0,0,0-.687-1.168,3.156,3.156,0,0,0-1.161-.795,4.417,4.417,0,0,0-1.674-.286,6.669,6.669,0,0,0-3.222.783,8.148,8.148,0,0,0-2.5,2.087,9.647,9.647,0,0,0-1.624,3.031,11.556,11.556,0,0,0-.275,6.212,23.215,23.215,0,0,0,.749,2.535q0.45,1.255.987,2.534t1,2.634a27.471,27.471,0,0,1,.787,2.783,15.78,15.78,0,0,1,.374,2.994q0.825,0.8,1.586,1.59t1.512,1.453a8.307,8.307,0,0,0,1.5,1.068,3.183,3.183,0,0,0,1.548.41,3.1,3.1,0,0,0,1.774-.472,3.713,3.713,0,0,0,1.124-1.18,4.968,4.968,0,0,0,.6-1.528,7.2,7.2,0,0,0,.175-1.491,2.509,2.509,0,0,0-.05-0.559,1.6,1.6,0,0,1-.05-0.361q0-.373.625-0.373a2.91,2.91,0,0,1,2.074.683,2.164,2.164,0,0,1,.724,1.627A8.63,8.63,0,0,1,101,42.165,8.026,8.026,0,0,1,99.668,44.6a6.475,6.475,0,0,1-2.086,1.7A5.776,5.776,0,0,1,94.885,46.936ZM82.2,39.134a1.811,1.811,0,0,0-1.849,1.888,2.046,2.046,0,0,0,.463,1.3,1.6,1.6,0,0,0,1.336.584,1.853,1.853,0,0,0,.937-0.236,2.347,2.347,0,0,0,.712-0.634,3.5,3.5,0,0,0,.487-0.907,5,5,0,0,0,.262-1.081,5.924,5.924,0,0,0-1.149-.671A2.992,2.992,0,0,0,82.2,39.134Zm35.245,7.33a4.392,4.392,0,0,1-1.585-.273,3.957,3.957,0,0,1-1.249-.758,4.11,4.11,0,0,1-.887-1.143,4.578,4.578,0,0,1-.475-1.428,9.309,9.309,0,0,1-2.173,2.634,4.521,4.521,0,0,1-2.948,1.019,4.764,4.764,0,0,1-4-2,6.865,6.865,0,0,1-1.062-2.31,11.705,11.705,0,0,1-.362-3.019,29.051,29.051,0,0,1,.287-4.05q0.287-2.037.637-3.677,0.4-1.913.925-3.7a3.742,3.742,0,0,0,.187-0.658,1.324,1.324,0,0,1,.287-0.609,1.6,1.6,0,0,1,.712-0.447,4.847,4.847,0,0,1,1.511-.174,1.594,1.594,0,0,1,1.224.335,0.97,0.97,0,0,1,.213.783,2.976,2.976,0,0,1-.3.919,3.886,3.886,0,0,0-.312.771q-0.351,1.415-.625,2.584t-0.462,2.348q-0.187,1.18-.287,2.46t-0.1,2.87a6.465,6.465,0,0,0,.612,3.155,1.907,1.907,0,0,0,1.736,1.069,2.154,2.154,0,0,0,1.436-.571,5.646,5.646,0,0,0,1.2-1.528,12.156,12.156,0,0,0,.937-2.186,17.807,17.807,0,0,0,.624-2.572V28.1a3.474,3.474,0,0,0-.087-0.87,3.336,3.336,0,0,0-.175-0.509,1.64,1.64,0,0,0-.175-0.3,0.412,0.412,0,0,1-.087-0.261,0.275,0.275,0,0,1,.15-0.223,1.5,1.5,0,0,1,.4-0.174,3.488,3.488,0,0,1,.537-0.112,4.322,4.322,0,0,1,.563-0.038,2.907,2.907,0,0,1,2.01.659,2.046,2.046,0,0,1,.737,1.578v12.92c0,0.116.008,0.3,0.025,0.559a3.3,3.3,0,0,0,.15.783,1.812,1.812,0,0,0,.4.7,1,1,0,0,0,.775.3,1.853,1.853,0,0,0,1.337-.547,5.034,5.034,0,0,0,.973-1.366,9.576,9.576,0,0,0,.675-1.777q0.261-.956.437-1.8a2.228,2.228,0,0,1,.5-1.155,1.015,1.015,0,0,1,.724-0.361,1.259,1.259,0,0,1,.625.186,2.316,2.316,0,0,1,.586.485,2.519,2.519,0,0,1,.425.671,1.857,1.857,0,0,1,.162.745v0.124a0.766,0.766,0,0,1-.05.224,24.694,24.694,0,0,1-.911,2.659,11.317,11.317,0,0,1-1.437,2.559,7.773,7.773,0,0,1-2.1,1.938A5.279,5.279,0,0,1,117.44,46.464ZM121.987,28.1a3.462,3.462,0,0,0-.113-1.043,1.82,1.82,0,0,1-.112-0.6,0.7,0.7,0,0,1,.4-0.609,1.828,1.828,0,0,1,.948-0.236,2.908,2.908,0,0,1,2.011.659,2.046,2.046,0,0,1,.737,1.578V30.14A17.578,17.578,0,0,1,127,28.152a9.48,9.48,0,0,1,1.324-1.6,5.789,5.789,0,0,1,1.524-1.069A4.053,4.053,0,0,1,131.6,25.1a4.187,4.187,0,0,1,2.1.472,3.677,3.677,0,0,1,1.3,1.218,4.9,4.9,0,0,1,.662,1.665,9.019,9.019,0,0,1,.187,1.789V40.774c0,0.116.008,0.3,0.025,0.559a3.249,3.249,0,0,0,.15.783,1.9,1.9,0,0,0,.387.7,0.961,0.961,0,0,0,.762.3,1.849,1.849,0,0,0,1.336-.547,5.015,5.015,0,0,0,.974-1.366,9.576,9.576,0,0,0,.675-1.777q0.261-.956.437-1.8a2.228,2.228,0,0,1,.5-1.155,1.015,1.015,0,0,1,.724-0.361,1.253,1.253,0,0,1,.624.186,2.3,2.3,0,0,1,.587.485,2.519,2.519,0,0,1,.425.671,1.857,1.857,0,0,1,.162.745v0.124a0.766,0.766,0,0,1-.05.224,21,21,0,0,1-.887,2.659,11.019,11.019,0,0,1-1.448,2.559,7.944,7.944,0,0,1-2.111,1.938,5.279,5.279,0,0,1-2.873.771,4.081,4.081,0,0,1-1.811-.385,4.247,4.247,0,0,1-1.348-1.031,4.37,4.37,0,0,1-.85-1.516,5.839,5.839,0,0,1-.287-1.839V31.357q0-.6-0.025-1.118a4.138,4.138,0,0,0-.137-0.919,1.576,1.576,0,0,0-.325-0.634,0.75,0.75,0,0,0-.587-0.236,2.222,2.222,0,0,0-1.348.745,10.272,10.272,0,0,0-1.574,1.938,14.8,14.8,0,0,0-1.362,2.7,11.367,11.367,0,0,0-.737,3.019v7.43q0,0.372-.012.757a1.863,1.863,0,0,1-.15.7,1.289,1.289,0,0,1-.425.522,1.4,1.4,0,0,1-.836.211,4.2,4.2,0,0,1-.812-0.087,2.244,2.244,0,0,1-.8-0.323,1.817,1.817,0,0,1-.6-0.671,2.4,2.4,0,0,1-.237-1.156V28.1ZM154.909,43.11a1.848,1.848,0,0,0,1.336-.547,5.038,5.038,0,0,0,.975-1.366,9.574,9.574,0,0,0,.674-1.777q0.262-.956.437-1.8a2.461,2.461,0,0,1,.513-1.155,1,1,0,0,1,.736-0.361,1.2,1.2,0,0,1,.613.186,2.431,2.431,0,0,1,.574.485,2.6,2.6,0,0,1,.425.671,1.874,1.874,0,0,1,.162.745v0.124a0.8,0.8,0,0,1-.05.224,21.163,21.163,0,0,1-.887,2.659,11.352,11.352,0,0,1-1.436,2.559,7.708,7.708,0,0,1-2.111,1.938,5.345,5.345,0,0,1-2.885.771,4.646,4.646,0,0,1-2.348-.572,4.312,4.312,0,0,1-1.574-1.515,7.129,7.129,0,0,1-1.861,1.478,5.1,5.1,0,0,1-2.535.609,5.449,5.449,0,0,1-4.546-2.224,7.179,7.179,0,0,1-1.162-2.435,11.321,11.321,0,0,1-.387-3.019,15.133,15.133,0,0,1,1.024-5.715,13.44,13.44,0,0,1,2.723-4.311A11.824,11.824,0,0,1,147.2,26.04a11.317,11.317,0,0,1,4.534-.944,2.475,2.475,0,0,1,1.7.572,1.978,1.978,0,0,1,.65,1.565,2.128,2.128,0,0,1-.137.907,0.527,0.527,0,0,1-.513.261,5.382,5.382,0,0,1-.724-0.05,5.981,5.981,0,0,0-.774-0.05,7.529,7.529,0,0,0-2.948.634,7.859,7.859,0,0,0-2.71,1.938,10.2,10.2,0,0,0-1.986,3.3,13.178,13.178,0,0,0-.774,4.758,5.262,5.262,0,0,0,.774,3.093,2.472,2.472,0,0,0,2.123,1.081,2.249,2.249,0,0,0,1.749-.782,6.166,6.166,0,0,0,1.124-1.851V32.624A4.425,4.425,0,0,0,149.252,32c-0.026-.166-0.05-0.307-0.075-0.423s-0.046-.22-0.063-0.31a1.42,1.42,0,0,1-.025-0.261,0.716,0.716,0,0,1,.387-0.634,1.765,1.765,0,0,1,.937-0.236,2.956,2.956,0,0,1,2.023.658,2.031,2.031,0,0,1,.75,1.578v8.4a3.483,3.483,0,0,0,.1.833,2.669,2.669,0,0,0,.3.745,1.6,1.6,0,0,0,.537.547A1.451,1.451,0,0,0,154.909,43.11Zm23.456,3.777a8.616,8.616,0,0,1-2.7-.36,6.492,6.492,0,0,1-1.7-.807,3.164,3.164,0,0,1-.874-0.857,1.5,1.5,0,0,1-.25-0.534,2.612,2.612,0,0,1,.2-0.957,4.648,4.648,0,0,1,.5-0.944,3.772,3.772,0,0,1,.649-0.733,1.02,1.02,0,0,1,.625-0.3,0.664,0.664,0,0,1,.574.447l0.25,0.248a2.756,2.756,0,0,0,.562.41,4.563,4.563,0,0,0,.9.385,4.084,4.084,0,0,0,1.262.174,3.566,3.566,0,0,0,2.572-.957,3.421,3.421,0,0,0,1-2.6,3.881,3.881,0,0,0-.537-2.037,7.086,7.086,0,0,0-1.411-1.665,17.446,17.446,0,0,0-2-1.5q-1.125-.733-2.3-1.528t-2.3-1.714a11.434,11.434,0,0,1-2-2.112,10.507,10.507,0,0,1-1.412-2.7,10.2,10.2,0,0,1-.537-3.441,10.372,10.372,0,0,1,.574-3.355,14.011,14.011,0,0,1,1.587-3.218,17.479,17.479,0,0,1,5.358-5.168A15.293,15.293,0,0,1,180.3,9.529a11.293,11.293,0,0,1,3.484-.559,7.324,7.324,0,0,1,2.7.472,5.618,5.618,0,0,1,2.023,1.329,5.934,5.934,0,0,1,1.274,2.062,7.663,7.663,0,0,1,.45,2.7,8.049,8.049,0,0,1-.5,2.783,11.863,11.863,0,0,1-1.324,2.584,15.068,15.068,0,0,1-1.861,2.249,15.984,15.984,0,0,1-2.123,1.789,11.159,11.159,0,0,1-2.111,1.18,4.812,4.812,0,0,1-1.8.423,2.374,2.374,0,0,1-1.212-.311,3.1,3.1,0,0,1-.9-0.77,3.821,3.821,0,0,1-.562-0.969,2.527,2.527,0,0,1-.2-0.907,0.7,0.7,0,0,1,.087-0.423,0.287,0.287,0,0,1,.25-0.087,2.568,2.568,0,0,1,.412.075,2.4,2.4,0,0,0,.575.062,4.8,4.8,0,0,0,2.323-.721,11.257,11.257,0,0,0,2.4-1.838,11.424,11.424,0,0,0,1.886-2.46,5.275,5.275,0,0,0,.762-2.609,3.033,3.033,0,0,0-.637-2.037,2.711,2.711,0,0,0-2.16-.745,6.733,6.733,0,0,0-2.062.36,11.844,11.844,0,0,0-2.235,1.006,13.6,13.6,0,0,0-2.173,1.566,12.184,12.184,0,0,0-1.849,2.025,10.327,10.327,0,0,0-1.286,2.386,7.439,7.439,0,0,0-.487,2.671,6.146,6.146,0,0,0,.537,2.621,7.915,7.915,0,0,0,1.424,2.1,13.184,13.184,0,0,0,2.01,1.739q1.125,0.795,2.3,1.578t2.3,1.615a12.854,12.854,0,0,1,2.011,1.838,8.521,8.521,0,0,1,1.424,2.236,6.986,6.986,0,0,1,.537,2.82,7.384,7.384,0,0,1-.587,2.92,7.461,7.461,0,0,1-1.611,2.4,7.656,7.656,0,0,1-2.423,1.615A7.564,7.564,0,0,1,178.365,46.886Zm18.484,0.1a4.756,4.756,0,0,1-1.549-.211,2.271,2.271,0,0,1-.924-0.559V62.763a1.966,1.966,0,0,1-.962,1.814,2.617,2.617,0,0,1-.887.335,4.784,4.784,0,0,1-.849.087,0.992,0.992,0,0,1-.974-0.4,2.131,2.131,0,0,1-.2-0.969V28.1a3.421,3.421,0,0,0-.088-0.87,3.242,3.242,0,0,0-.174-0.509,1.64,1.64,0,0,0-.175-0.3,0.412,0.412,0,0,1-.087-0.261,0.273,0.273,0,0,1,.15-0.223,1.471,1.471,0,0,1,.4-0.174,3.488,3.488,0,0,1,.537-0.112,4.307,4.307,0,0,1,.562-0.038,2.834,2.834,0,0,1,1.961.659,2.177,2.177,0,0,1,.787,1.528,7.37,7.37,0,0,1,1.923-1.938,4.746,4.746,0,0,1,2.748-.771,4.821,4.821,0,0,1,2.61.7,5.723,5.723,0,0,1,1.849,1.9,9.257,9.257,0,0,1,1.1,2.845,16.368,16.368,0,0,1,.362,3.528,21.607,21.607,0,0,1-.375,4.087,17.379,17.379,0,0,1-.949,3.342,8.325,8.325,0,0,0,2.1-.347,4.053,4.053,0,0,0,1.387-.758,4.7,4.7,0,0,0,.974-1.18q0.412-.7.862-1.591a7.07,7.07,0,0,1,.587-1.043,0.705,0.705,0,0,1,.586-0.323,1.3,1.3,0,0,1,.662.2,2.465,2.465,0,0,1,.6.5,2.846,2.846,0,0,1,.425.634,1.42,1.42,0,0,1,.162.609,4.319,4.319,0,0,1-.6,1.988,7.014,7.014,0,0,1-1.836,2.112,10.85,10.85,0,0,1-3.123,1.677A13,13,0,0,1,202,44.65a7.432,7.432,0,0,1-2.423,1.727A6.685,6.685,0,0,1,196.849,46.986Zm0.9-18.486a1.966,1.966,0,0,0-1.062.323,3.982,3.982,0,0,0-.961.882,5.711,5.711,0,0,0-.787,1.354,11.21,11.21,0,0,0-.562,1.714V43.78a3.429,3.429,0,0,1,1.8-1.218,12.867,12.867,0,0,1,3.022-.571,7.379,7.379,0,0,0,.787-1.6,16.061,16.061,0,0,0,.561-1.925,18.931,18.931,0,0,0,.338-1.938,14.835,14.835,0,0,0-.15-4.622,6.629,6.629,0,0,0-.712-1.975,2.94,2.94,0,0,0-1.036-1.093A2.463,2.463,0,0,0,197.748,28.5Zm25.678,14.61a1.85,1.85,0,0,0,1.337-.547,5.036,5.036,0,0,0,.974-1.366,9.576,9.576,0,0,0,.675-1.777q0.261-.956.437-1.8a2.451,2.451,0,0,1,.512-1.155A1,1,0,0,1,228.1,36.1a1.193,1.193,0,0,1,.612.186,2.411,2.411,0,0,1,.574.485,2.544,2.544,0,0,1,.425.671,1.857,1.857,0,0,1,.162.745v0.124a0.766,0.766,0,0,1-.05.224,21.163,21.163,0,0,1-.887,2.659,11.275,11.275,0,0,1-1.436,2.559,7.694,7.694,0,0,1-2.111,1.938,5.34,5.34,0,0,1-2.885.771,4.649,4.649,0,0,1-2.348-.572,4.309,4.309,0,0,1-1.573-1.515,7.134,7.134,0,0,1-1.862,1.478,5.1,5.1,0,0,1-2.535.609,5.449,5.449,0,0,1-4.546-2.224,7.216,7.216,0,0,1-1.162-2.435,11.362,11.362,0,0,1-.387-3.019,15.113,15.113,0,0,1,1.025-5.715,13.42,13.42,0,0,1,2.722-4.311,11.835,11.835,0,0,1,3.884-2.721,11.325,11.325,0,0,1,4.535-.944,2.475,2.475,0,0,1,1.7.572,1.978,1.978,0,0,1,.65,1.565,2.109,2.109,0,0,1-.138.907,0.526,0.526,0,0,1-.512.261,5.386,5.386,0,0,1-.725-0.05,5.969,5.969,0,0,0-.774-0.05,7.524,7.524,0,0,0-2.947.634,7.872,7.872,0,0,0-2.711,1.938,10.182,10.182,0,0,0-1.985,3.3,13.155,13.155,0,0,0-.775,4.758,5.254,5.254,0,0,0,.775,3.093,2.471,2.471,0,0,0,2.123,1.081,2.247,2.247,0,0,0,1.748-.782,6.166,6.166,0,0,0,1.124-1.851V32.624A4.277,4.277,0,0,0,217.769,32q-0.038-.248-0.075-0.423c-0.025-.116-0.046-0.22-0.062-0.31a1.424,1.424,0,0,1-.026-0.261,0.718,0.718,0,0,1,.387-0.634,1.77,1.77,0,0,1,.937-0.236,2.958,2.958,0,0,1,2.024.658,2.033,2.033,0,0,1,.749,1.578v8.4a3.483,3.483,0,0,0,.1.833,2.641,2.641,0,0,0,.3.745,1.6,1.6,0,0,0,.537.547A1.448,1.448,0,0,0,223.426,43.11Zm32.923-13.417h7.969V12.324a8.362,8.362,0,0,1,.786-4.075,2.24,2.24,0,0,1,1.886-1.367,1.848,1.848,0,0,1,1.037.324,4.17,4.17,0,0,1,.861.757,3.834,3.834,0,0,1,.588.895,1.9,1.9,0,0,1,.212.733,0.266,0.266,0,0,1-.212.31,1.022,1.022,0,0,0-.475.273,2.125,2.125,0,0,0-.475.932,8.7,8.7,0,0,0-.212,2.286V45.3a0.971,0.971,0,0,1-.437.907,1.941,1.941,0,0,1-1.011.261,3.359,3.359,0,0,1-.9-0.124,3.764,3.764,0,0,1-.812-0.324,2.278,2.278,0,0,1-.6-0.46A0.814,0.814,0,0,1,264.318,45V33.245h-7.969V45.3a0.971,0.971,0,0,1-.437.907,1.942,1.942,0,0,1-1.012.261,3.368,3.368,0,0,1-.9-0.124,3.764,3.764,0,0,1-.812-0.324,2.262,2.262,0,0,1-.6-0.46A0.815,0.815,0,0,1,252.352,45V33.245h-3.647A1.217,1.217,0,0,1,247.968,33a2.228,2.228,0,0,1-.574-0.634,3.567,3.567,0,0,1-.374-0.832,2.872,2.872,0,0,1-.138-0.845,1.273,1.273,0,0,1,.187-0.708,0.629,0.629,0,0,1,.563-0.286h4.72V13.244a11.781,11.781,0,0,0-4.358.782,9.8,9.8,0,0,0-3.423,2.236,10.287,10.287,0,0,0-2.247,3.516,12.511,12.511,0,0,0-.812,4.622,11.92,11.92,0,0,0,.324,2.907,11.11,11.11,0,0,0,.774,2.2,6.227,6.227,0,0,0,.9,1.4,1.225,1.225,0,0,0,.7.5,0.391,0.391,0,0,0,.324-0.125,0.363,0.363,0,0,1,.3-0.124,0.267,0.267,0,0,1,.25.273,3.069,3.069,0,0,1,.05.547,3.567,3.567,0,0,1-.325,1.5A3.412,3.412,0,0,1,244,34.624a2.126,2.126,0,0,1-1.087.534,1.488,1.488,0,0,1-1.149-.3,8.17,8.17,0,0,1-1.436-1.354,10.227,10.227,0,0,1-1.4-2.174,14.544,14.544,0,0,1-1.049-2.994,16.108,16.108,0,0,1-.412-3.79,15.633,15.633,0,0,1,.712-4.882,13.933,13.933,0,0,1,1.923-3.852,12.933,12.933,0,0,1,2.86-2.882,17.308,17.308,0,0,1,3.51-1.988,18.747,18.747,0,0,1,3.872-1.156,21.7,21.7,0,0,1,3.959-.373,1.946,1.946,0,0,1,.774.162,1.994,1.994,0,0,1,.65.447,2.323,2.323,0,0,1,.449.683,2.069,2.069,0,0,1,.175.845V29.692ZM287.5,43.11a1.85,1.85,0,0,0,1.337-.547,5.036,5.036,0,0,0,.974-1.366,9.647,9.647,0,0,0,.675-1.777q0.261-.956.437-1.8a2.451,2.451,0,0,1,.512-1.155,1,1,0,0,1,.737-0.361,1.193,1.193,0,0,1,.612.186,2.411,2.411,0,0,1,.574.485,2.544,2.544,0,0,1,.425.671,1.857,1.857,0,0,1,.162.745v0.124a0.766,0.766,0,0,1-.05.224,21.163,21.163,0,0,1-.887,2.659,11.275,11.275,0,0,1-1.436,2.559,7.694,7.694,0,0,1-2.111,1.938,5.34,5.34,0,0,1-2.885.771,4.646,4.646,0,0,1-2.348-.572,4.309,4.309,0,0,1-1.573-1.515,7.134,7.134,0,0,1-1.862,1.478,5.1,5.1,0,0,1-2.535.609,5.449,5.449,0,0,1-4.546-2.224,7.216,7.216,0,0,1-1.162-2.435,11.362,11.362,0,0,1-.387-3.019,15.113,15.113,0,0,1,1.025-5.715,13.42,13.42,0,0,1,2.722-4.311,11.835,11.835,0,0,1,3.884-2.721,11.324,11.324,0,0,1,4.534-.944,2.476,2.476,0,0,1,1.7.572,1.978,1.978,0,0,1,.65,1.565,2.109,2.109,0,0,1-.138.907,0.526,0.526,0,0,1-.512.261,5.386,5.386,0,0,1-.725-0.05,5.969,5.969,0,0,0-.774-0.05,7.524,7.524,0,0,0-2.947.634,7.872,7.872,0,0,0-2.711,1.938,10.182,10.182,0,0,0-1.985,3.3,13.155,13.155,0,0,0-.775,4.758,5.254,5.254,0,0,0,.775,3.093,2.471,2.471,0,0,0,2.123,1.081,2.247,2.247,0,0,0,1.748-.782,6.166,6.166,0,0,0,1.124-1.851V32.624A4.277,4.277,0,0,0,281.84,32q-0.037-.248-0.075-0.423c-0.025-.116-0.046-0.22-0.062-0.31a1.424,1.424,0,0,1-.026-0.261,0.718,0.718,0,0,1,.387-0.634A1.77,1.77,0,0,1,283,30.14a2.958,2.958,0,0,1,2.024.658,2.033,2.033,0,0,1,.749,1.578v8.4a3.483,3.483,0,0,0,.1.833,2.641,2.641,0,0,0,.3.745,1.6,1.6,0,0,0,.537.547A1.448,1.448,0,0,0,287.5,43.11ZM291.145,28.1a3.462,3.462,0,0,0-.113-1.043,1.82,1.82,0,0,1-.112-0.6,0.7,0.7,0,0,1,.4-0.609,1.829,1.829,0,0,1,.949-0.236,2.907,2.907,0,0,1,2.01.659,2.046,2.046,0,0,1,.737,1.578V30.14a17.578,17.578,0,0,1,1.137-1.988,9.527,9.527,0,0,1,1.324-1.6A5.789,5.789,0,0,1,299,25.48a4.053,4.053,0,0,1,1.761-.385,4.187,4.187,0,0,1,2.1.472,3.677,3.677,0,0,1,1.3,1.218,4.9,4.9,0,0,1,.662,1.665,9.019,9.019,0,0,1,.187,1.789V40.774c0,0.116.008,0.3,0.025,0.559a3.249,3.249,0,0,0,.15.783,1.9,1.9,0,0,0,.387.7,0.961,0.961,0,0,0,.762.3,1.853,1.853,0,0,0,1.337-.547,5.034,5.034,0,0,0,.973-1.366,9.576,9.576,0,0,0,.675-1.777q0.261-.956.437-1.8a2.228,2.228,0,0,1,.5-1.155,1.015,1.015,0,0,1,.724-0.361,1.253,1.253,0,0,1,.624.186,2.3,2.3,0,0,1,.587.485,2.519,2.519,0,0,1,.425.671,1.857,1.857,0,0,1,.162.745v0.124a0.766,0.766,0,0,1-.05.224,20.99,20.99,0,0,1-.886,2.659,11.058,11.058,0,0,1-1.449,2.559,7.944,7.944,0,0,1-2.111,1.938,5.279,5.279,0,0,1-2.873.771,4.078,4.078,0,0,1-1.811-.385,4.247,4.247,0,0,1-1.348-1.031,4.37,4.37,0,0,1-.85-1.516,5.839,5.839,0,0,1-.287-1.839V31.357q0-.6-0.025-1.118a4.138,4.138,0,0,0-.137-0.919,1.576,1.576,0,0,0-.325-0.634,0.75,0.75,0,0,0-.587-0.236,2.222,2.222,0,0,0-1.348.745,10.272,10.272,0,0,0-1.574,1.938,14.8,14.8,0,0,0-1.362,2.7,11.367,11.367,0,0,0-.737,3.019v7.43q0,0.372-.012.757a1.863,1.863,0,0,1-.15.7,1.289,1.289,0,0,1-.425.522,1.4,1.4,0,0,1-.836.211,4.2,4.2,0,0,1-.812-0.087,2.244,2.244,0,0,1-.8-0.323,1.817,1.817,0,0,1-.6-0.671,2.4,2.4,0,0,1-.237-1.156V28.1Zm37.169,8.547a0.744,0.744,0,0,1,.337-0.5,1.743,1.743,0,0,1,.662-0.273,2.069,2.069,0,0,1,.786,0,1.536,1.536,0,0,1,.725.335,1.458,1.458,0,0,1,.45.721,2.317,2.317,0,0,1-.038,1.18,6.877,6.877,0,0,1-.737,1.951,6.314,6.314,0,0,1-1.286,1.6,5.74,5.74,0,0,1-1.823,1.093,6.585,6.585,0,0,1-2.349.4,10.78,10.78,0,0,1-1.311-.075,5.767,5.767,0,0,1-1.187-.273,7.891,7.891,0,0,1-2.447,2.646,6.484,6.484,0,0,1-3.7,1.006,6.928,6.928,0,0,1-3.347-.758,6.754,6.754,0,0,1-2.324-2.062,9.036,9.036,0,0,1-1.361-3.019A14.606,14.606,0,0,1,308.93,37a17.611,17.611,0,0,1,.662-5.032,18.447,18.447,0,0,1,1.536-3.776,10.2,10.2,0,0,1,1.736-2.373A2.439,2.439,0,0,1,314.15,25a1.236,1.236,0,0,1,.912.434,2.634,2.634,0,0,1,.6,1.019,2.574,2.574,0,0,1,.1,1.18,1.265,1.265,0,0,1-.586.919q-0.3.473-.712,1.093a8.217,8.217,0,0,0-.775,1.553,12.9,12.9,0,0,0-.612,2.274,17.992,17.992,0,0,0-.249,3.23,12.069,12.069,0,0,0,.287,2.808,6.607,6.607,0,0,0,.8,2,3.628,3.628,0,0,0,1.174,1.205,2.693,2.693,0,0,0,1.411.4,2.933,2.933,0,0,0,1.811-.534,4.575,4.575,0,0,0,1.212-1.4,9.772,9.772,0,0,1-2.735-3.913,13.838,13.838,0,0,1-.937-5.131,9.656,9.656,0,0,1,.262-2.274,6.414,6.414,0,0,1,.775-1.9,4.028,4.028,0,0,1,1.286-1.3,3.32,3.32,0,0,1,1.8-.485,2.66,2.66,0,0,1,1.7.647,5.608,5.608,0,0,1,1.4,1.789,10.687,10.687,0,0,1,.937,2.708,16.15,16.15,0,0,1,.337,3.4,22.6,22.6,0,0,1-.175,2.808,17.321,17.321,0,0,1-.55,2.684,1.774,1.774,0,0,0,.512.112c0.159,0.009.329,0.012,0.513,0.012a3.411,3.411,0,0,0,1.461-.3,3.372,3.372,0,0,0,1.087-.8,3.966,3.966,0,0,0,.724-1.167A6.662,6.662,0,0,0,328.314,36.649Zm-9.767-4.721a9.791,9.791,0,0,0,.537,3.255,9.55,9.55,0,0,0,1.411,2.684,19.112,19.112,0,0,0,.15-2.336q0-1.292-.037-2.4a14.451,14.451,0,0,0-.175-1.9,4.463,4.463,0,0,0-.375-1.255,0.715,0.715,0,0,0-.637-0.46Q318.547,29.518,318.547,31.929Zm12.489-11.355a2.9,2.9,0,0,1-1.186-.248,3.1,3.1,0,0,1-.975-0.671,3.353,3.353,0,0,1-.662-0.981,2.929,2.929,0,0,1-.249-1.205,3.078,3.078,0,0,1,.249-1.243,3.151,3.151,0,0,1,.662-0.981,3.083,3.083,0,0,1,2.161-.882,3.253,3.253,0,0,1,1.249.236,2.914,2.914,0,0,1,1.636,1.627,3.213,3.213,0,0,1,.237,1.243,3.056,3.056,0,0,1-.237,1.205,3.186,3.186,0,0,1-.649.981,3.059,3.059,0,0,1-.987.671A3.114,3.114,0,0,1,331.036,20.573Zm1.174,20.2c0,0.116.008,0.3,0.025,0.559a3.249,3.249,0,0,0,.15.783,1.8,1.8,0,0,0,.4.7,1,1,0,0,0,.774.3,1.819,1.819,0,0,0,1.311-.547,5.015,5.015,0,0,0,.974-1.366,10.2,10.2,0,0,0,.687-1.777q0.274-.956.45-1.8a2.352,2.352,0,0,1,.462-1.118,1.059,1.059,0,0,1,.674-0.385,1.136,1.136,0,0,1,.725.186,2.562,2.562,0,0,1,.65.584,2.45,2.45,0,0,1,.424.808,1.563,1.563,0,0,1,.038.845,24.709,24.709,0,0,1-.912,2.659,11.352,11.352,0,0,1-1.436,2.559,7.792,7.792,0,0,1-2.1,1.938,5.278,5.278,0,0,1-2.872.771,4.157,4.157,0,0,1-1.824-.385,4.06,4.06,0,0,1-1.349-1.031,4.473,4.473,0,0,1-.836-1.516,5.811,5.811,0,0,1-.288-1.839V28.1a3.469,3.469,0,0,0-.112-1.043,1.82,1.82,0,0,1-.112-0.6,0.7,0.7,0,0,1,.4-0.609,1.832,1.832,0,0,1,.949-0.236,2.908,2.908,0,0,1,2.011.659,2.046,2.046,0,0,1,.737,1.578v12.92ZM45.759,29.223L43.8,29.007l1.455-1.32a24.287,24.287,0,0,0,7.538-13.24,1.292,1.292,0,0,0-2.535-.505A21.851,21.851,0,0,1,37.347,29.724,1.272,1.272,0,0,0,36.63,31.3a1.3,1.3,0,0,0,1.521.89,22,22,0,0,1,19.772,5.22,1.3,1.3,0,0,0,1.832-.069,1.281,1.281,0,0,0-.079-1.813A24.48,24.48,0,0,0,45.759,29.223ZM51.315,19.2a4.083,4.083,0,0,0,.095,2.923,4.653,4.653,0,0,0,2.322,2.414,3.3,3.3,0,0,0,4.05-1.01l0.166-.238a2.4,2.4,0,0,0-.462-3.27,2.192,2.192,0,0,0-3.032.555,2.3,2.3,0,0,0-.368,1.741l0.059,0.255L53.9,22.518a1.774,1.774,0,0,1-1.252-1.143,2.622,2.622,0,0,1,.4-2.484l0.034-.05a3.942,3.942,0,0,1,4.657-1.164,4.672,4.672,0,0,1,2.457,2.458,4.348,4.348,0,0,1-.022,3.682,5.4,5.4,0,0,1-.645,1.061,5.6,5.6,0,0,1-2.359,1.787,5.5,5.5,0,0,1-4.382-.117,4.235,4.235,0,0,1-.484-0.255,3.889,3.889,0,0,1-.628,1.171l-0.034.05a2.676,2.676,0,0,1-2.325.981,1.768,1.768,0,0,1-1.42-.931l-0.11-.226,0.26-.006a1.676,1.676,0,0,0,1.525-.677c0.029-.039.054-0.067,0.084-0.106a2.224,2.224,0,0,0,.278-2.5,6.009,6.009,0,0,1-.568-1.085c-0.032-.077-0.1-0.4-0.127-0.489C48.973,20.379,50.75,16.685,51.315,19.2ZM59.593,30a1.232,1.232,0,1,0-1.177-1.29A1.237,1.237,0,0,0,59.593,30ZM39.528,45.09l-0.4-1.918,1.711,0.969a24.556,24.556,0,0,0,14.987,3.047,1.286,1.286,0,1,0-.3-2.554,22,22,0,0,1-19.077-7.348,1.31,1.31,0,0,0-2.112,1.523A21.7,21.7,0,0,1,35.45,59.128a1.289,1.289,0,1,0,2.341,1.078A24.174,24.174,0,0,0,39.528,45.09Zm11.3,2.165a4.138,4.138,0,0,0-2.766.992,4.636,4.636,0,0,0-1.592,2.941,3.269,3.269,0,0,0,2.215,3.521l0.279,0.083a2.424,2.424,0,0,0,2.985-1.446,2.171,2.171,0,0,0-1.466-2.7,2.338,2.338,0,0,0-1.779.189l-0.226.134L48.45,50.72a1.764,1.764,0,0,1,.706-1.538,2.659,2.659,0,0,1,2.5-.387l0.058,0.017a3.907,3.907,0,0,1,2.55,4.047,4.651,4.651,0,0,1-1.592,3.083,4.407,4.407,0,0,1-3.527,1.115,5.459,5.459,0,0,1-1.214-.283,5.6,5.6,0,0,1-2.436-1.68,5.42,5.42,0,0,1-1.24-4.182,4.181,4.181,0,0,1,.095-0.537,3.933,3.933,0,0,1-1.313-.233l-0.058-.017a2.66,2.66,0,0,1-1.655-1.9,1.752,1.752,0,0,1,.453-1.631l0.182-.174,0.086,0.244A1.666,1.666,0,0,0,43.161,47.9c0.046,0.016.081,0.031,0.127,0.047a2.254,2.254,0,0,0,2.474-.508,6.037,6.037,0,0,1,.863-0.873c0.064-.054.353-0.218,0.429-0.271C48.977,45.4,53.058,45.944,50.826,47.255ZM43.049,58.421a1.238,1.238,0,1,0,.871-1.512A1.24,1.24,0,0,0,43.049,58.421ZM22.486,44.142l1.711-.969-0.4,1.918A24.2,24.2,0,0,0,25.521,60.21a1.308,1.308,0,0,0,1.717.633,1.285,1.285,0,0,0,.632-1.706A21.724,21.724,0,0,1,29,38.819a1.27,1.27,0,0,0-.352-1.7,1.3,1.3,0,0,0-1.757.169A21.948,21.948,0,0,1,7.8,44.626,1.283,1.283,0,1,0,7.5,47.174,24.528,24.528,0,0,0,22.486,44.142ZM23.911,55.5a4.106,4.106,0,0,0-1.8-2.31,4.687,4.687,0,0,0-3.3-.6,3.273,3.273,0,0,0-2.681,3.184l0.006,0.289a2.414,2.414,0,0,0,2.306,2.376,2.178,2.178,0,0,0,2.126-2.221,2.309,2.309,0,0,0-.731-1.624l-0.2-.172,0.232-.1a1.785,1.785,0,0,1,1.689.193,2.629,2.629,0,0,1,1.143,2.244l0,0.06a3.913,3.913,0,0,1-3.081,3.664,4.706,4.706,0,0,1-3.44-.553,4.37,4.37,0,0,1-2.157-2.992,5.379,5.379,0,0,1-.1-1.235,5.55,5.55,0,0,1,.853-2.825,5.47,5.47,0,0,1,3.615-2.467,4.274,4.274,0,0,1,.542-0.076,3.878,3.878,0,0,1-.184-1.314l0-.06a2.653,2.653,0,0,1,1.3-2.152,1.776,1.776,0,0,1,1.7-.076l0.222,0.118-0.207.157a1.662,1.662,0,0,0-.834,1.439c0,0.049,0,.086-0.005.134a2.232,2.232,0,0,0,1.25,2.183,6.07,6.07,0,0,1,1.1.546c0.071,0.044.317,0.266,0.391,0.322C25.109,53.177,25.854,57.2,23.911,55.5ZM10.83,51.6a1.229,1.229,0,0,0-.358,1.705,1.244,1.244,0,0,0,1.714.356,1.229,1.229,0,0,0,.358-1.705A1.244,1.244,0,0,0,10.83,51.6Zm7.342-23.949,1.457,1.318-1.957.219A24.507,24.507,0,0,0,3.755,35.5a1.289,1.289,0,1,0,1.754,1.889,22.023,22.023,0,0,1,19.768-5.236,1.3,1.3,0,0,0,.805-2.468A21.843,21.843,0,0,1,13.157,13.912a1.29,1.29,0,1,0-2.53.5A24.259,24.259,0,0,0,18.172,27.646ZM7.758,32.515a4.1,4.1,0,0,0,1.649-2.422,4.621,4.621,0,0,0-.455-3.31,3.294,3.294,0,0,0-3.875-1.548l-0.274.1a2.4,2.4,0,0,0-1.556,2.917A2.187,2.187,0,0,0,6.029,29.57a2.322,2.322,0,0,0,1.326-1.195l0.1-.241,0.169,0.188a1.761,1.761,0,0,1,.339,1.657,2.64,2.64,0,0,1-1.79,1.777l-0.057.02A3.938,3.938,0,0,1,1.662,30a4.638,4.638,0,0,1-.538-3.425,4.371,4.371,0,0,1,2.191-2.967,5.452,5.452,0,0,1,1.148-.482,5.629,5.629,0,0,1,2.964-.069A5.466,5.466,0,0,1,10.9,25.709a4.189,4.189,0,0,1,.241.489,3.922,3.922,0,0,1,1.2-.581L12.4,25.6a2.68,2.68,0,0,1,2.461.563,1.754,1.754,0,0,1,.6,1.583l-0.044.247L15.2,27.843A1.679,1.679,0,0,0,13.57,27.5c-0.047.014-.083,0.022-0.13,0.037a2.238,2.238,0,0,0-1.7,1.859,6,6,0,0,1-.181,1.211c-0.02.081-.156,0.383-0.186,0.47C10.35,32.928,6.731,34.882,7.758,32.515ZM7.434,18.935a1.244,1.244,0,0,0-1.741.19,1.228,1.228,0,0,0,.191,1.732,1.244,1.244,0,0,0,1.741-.19A1.229,1.229,0,0,0,7.434,18.935Zm25.028-.47-0.8,1.79-0.824-1.779a24.37,24.37,0,0,0-10.4-11.155,1.308,1.308,0,0,0-1.76.5,1.284,1.284,0,0,0,.509,1.747A21.82,21.82,0,0,1,30.4,26.591a1.278,1.278,0,0,0,1.3,1.157A1.294,1.294,0,0,0,33,26.576,21.758,21.758,0,0,1,43.992,9.411a1.285,1.285,0,1,0-1.273-2.232A24.337,24.337,0,0,0,32.462,18.465Zm-7.921-8.3a4.141,4.141,0,0,0,2.83.8,4.676,4.676,0,0,0,3.015-1.47,3.256,3.256,0,0,0,.259-4.146l-0.178-.229a2.429,2.429,0,0,0-3.273-.552A2.165,2.165,0,0,0,26.807,7.6a2.33,2.33,0,0,0,1.557.876L28.627,8.5,28.5,8.721a1.779,1.779,0,0,1-1.474.841A2.652,2.652,0,0,1,24.768,8.43l-0.037-.047a3.892,3.892,0,0,1,.295-4.768,4.692,4.692,0,0,1,3.1-1.585,4.407,4.407,0,0,1,3.52,1.136,5.414,5.414,0,0,1,.821.933,5.552,5.552,0,0,1,1,2.777,5.423,5.423,0,0,1-1.439,4.119,4.22,4.22,0,0,1-.391.381,3.908,3.908,0,0,1,.932.949L32.6,12.372a2.643,2.643,0,0,1,.236,2.5,1.766,1.766,0,0,1-1.322,1.064l-0.25.036,0.073-.248a1.656,1.656,0,0,0-.187-1.651c-0.028-.04-0.048-0.072-0.076-0.111a2.25,2.25,0,0,0-2.308-1.019,6.093,6.093,0,0,1-1.212.21c-0.084.006-.414-0.027-0.507-0.028C24.962,12.74,21.96,9.937,24.541,10.163ZM37.4,5.587a1.238,1.238,0,1,0-1.593.725A1.231,1.231,0,0,0,37.4,5.587ZM30.128,31.709a2.2,2.2,0,0,0-.493,3.079,2.223,2.223,0,0,0,3.1.49,2.2,2.2,0,0,0,.493-3.079A2.223,2.223,0,0,0,30.128,31.709ZM20.107,17.188s4.057,9.165,7.374,9.579C27.482,26.767,27.5,22.639,20.107,17.188Zm22.54,0.622s-7.559,6.615-6.953,9.886C35.694,27.7,39.657,26.471,42.647,17.811Zm7.207,21.173s-8.606-5.2-11.562-3.644C38.292,35.34,40.652,38.735,49.854,38.983ZM31.846,52.207s2.215-9.769-.206-12.063C31.64,40.144,29.155,43.45,31.846,52.207ZM13.012,38.829s10.053-.542,11.612-3.484C24.624,35.346,20.749,33.868,13.012,38.829Z"/>
</svg>
